<mxfile host="app.diagrams.net" modified="2021-11-18T10:52:38.767Z" agent="5.0 (Windows NT 10.0; Win64; x64) AppleWebKit/537.36 (KHTML, like Gecko) Chrome/95.0.4638.69 Safari/537.36" etag="jpKzUBsBbxoYsJhDYklV" version="15.8.0" type="github">
  <diagram id="m7L3bO5dLPR57AYVn0N6" name="Page-1">
    <mxGraphModel dx="1673" dy="887" grid="1" gridSize="10" guides="1" tooltips="1" connect="1" arrows="1" fold="1" page="1" pageScale="1" pageWidth="850" pageHeight="1100" math="0" shadow="0">
      <root>
        <mxCell id="0" />
        <mxCell id="1" parent="0" />
        <mxCell id="rh7jWQ7DU89hcFFKtQTM-1" value="Staff" style="swimlane;fontStyle=0;childLayout=stackLayout;horizontal=1;startSize=26;horizontalStack=0;resizeParent=1;resizeParentMax=0;resizeLast=0;collapsible=1;marginBottom=0;align=center;fontSize=14;" vertex="1" parent="1">
          <mxGeometry x="33" y="394" width="160" height="146" as="geometry" />
        </mxCell>
        <mxCell id="rh7jWQ7DU89hcFFKtQTM-2" value="staffId {PK}" style="text;strokeColor=none;fillColor=none;spacingLeft=4;spacingRight=4;overflow=hidden;rotatable=0;points=[[0,0.5],[1,0.5]];portConstraint=eastwest;fontSize=12;" vertex="1" parent="rh7jWQ7DU89hcFFKtQTM-1">
          <mxGeometry y="26" width="160" height="30" as="geometry" />
        </mxCell>
        <mxCell id="rh7jWQ7DU89hcFFKtQTM-3" value="staffName" style="text;strokeColor=none;fillColor=none;spacingLeft=4;spacingRight=4;overflow=hidden;rotatable=0;points=[[0,0.5],[1,0.5]];portConstraint=eastwest;fontSize=12;" vertex="1" parent="rh7jWQ7DU89hcFFKtQTM-1">
          <mxGeometry y="56" width="160" height="30" as="geometry" />
        </mxCell>
        <mxCell id="rh7jWQ7DU89hcFFKtQTM-4" value="staffEmail" style="text;strokeColor=none;fillColor=none;spacingLeft=4;spacingRight=4;overflow=hidden;rotatable=0;points=[[0,0.5],[1,0.5]];portConstraint=eastwest;fontSize=12;" vertex="1" parent="rh7jWQ7DU89hcFFKtQTM-1">
          <mxGeometry y="86" width="160" height="30" as="geometry" />
        </mxCell>
        <mxCell id="rh7jWQ7DU89hcFFKtQTM-14" value="staffTelNumber" style="text;strokeColor=none;fillColor=none;spacingLeft=4;spacingRight=4;overflow=hidden;rotatable=0;points=[[0,0.5],[1,0.5]];portConstraint=eastwest;fontSize=12;" vertex="1" parent="rh7jWQ7DU89hcFFKtQTM-1">
          <mxGeometry y="116" width="160" height="30" as="geometry" />
        </mxCell>
        <mxCell id="rh7jWQ7DU89hcFFKtQTM-5" value="Role" style="swimlane;fontStyle=0;childLayout=stackLayout;horizontal=1;startSize=26;horizontalStack=0;resizeParent=1;resizeParentMax=0;resizeLast=0;collapsible=1;marginBottom=0;align=center;fontSize=14;" vertex="1" parent="1">
          <mxGeometry x="433" y="379" width="160" height="176" as="geometry" />
        </mxCell>
        <mxCell id="rh7jWQ7DU89hcFFKtQTM-15" value="staffId {PK} {FK}" style="text;strokeColor=none;fillColor=none;spacingLeft=4;spacingRight=4;overflow=hidden;rotatable=0;points=[[0,0.5],[1,0.5]];portConstraint=eastwest;fontSize=12;" vertex="1" parent="rh7jWQ7DU89hcFFKtQTM-5">
          <mxGeometry y="26" width="160" height="30" as="geometry" />
        </mxCell>
        <mxCell id="rh7jWQ7DU89hcFFKtQTM-6" value="salesAssistantFlag" style="text;strokeColor=none;fillColor=none;spacingLeft=4;spacingRight=4;overflow=hidden;rotatable=0;points=[[0,0.5],[1,0.5]];portConstraint=eastwest;fontSize=12;" vertex="1" parent="rh7jWQ7DU89hcFFKtQTM-5">
          <mxGeometry y="56" width="160" height="30" as="geometry" />
        </mxCell>
        <mxCell id="rh7jWQ7DU89hcFFKtQTM-16" value="salesAssistantCommision" style="text;strokeColor=none;fillColor=none;spacingLeft=4;spacingRight=4;overflow=hidden;rotatable=0;points=[[0,0.5],[1,0.5]];portConstraint=eastwest;fontSize=12;" vertex="1" parent="rh7jWQ7DU89hcFFKtQTM-5">
          <mxGeometry y="86" width="160" height="30" as="geometry" />
        </mxCell>
        <mxCell id="rh7jWQ7DU89hcFFKtQTM-7" value="opticianFlag" style="text;strokeColor=none;fillColor=none;spacingLeft=4;spacingRight=4;overflow=hidden;rotatable=0;points=[[0,0.5],[1,0.5]];portConstraint=eastwest;fontSize=12;" vertex="1" parent="rh7jWQ7DU89hcFFKtQTM-5">
          <mxGeometry y="116" width="160" height="30" as="geometry" />
        </mxCell>
        <mxCell id="rh7jWQ7DU89hcFFKtQTM-8" value="audiologistFlag" style="text;strokeColor=none;fillColor=none;spacingLeft=4;spacingRight=4;overflow=hidden;rotatable=0;points=[[0,0.5],[1,0.5]];portConstraint=eastwest;fontSize=12;" vertex="1" parent="rh7jWQ7DU89hcFFKtQTM-5">
          <mxGeometry y="146" width="160" height="30" as="geometry" />
        </mxCell>
        <mxCell id="rh7jWQ7DU89hcFFKtQTM-10" value="can be" style="text;html=1;strokeColor=none;fillColor=none;align=center;verticalAlign=middle;whiteSpace=wrap;rounded=0;" vertex="1" parent="1">
          <mxGeometry x="268" y="435" width="60" height="30" as="geometry" />
        </mxCell>
        <mxCell id="rh7jWQ7DU89hcFFKtQTM-11" value="" style="triangle;whiteSpace=wrap;html=1;fillColor=#000000;" vertex="1" parent="1">
          <mxGeometry x="328" y="440" width="20" height="20" as="geometry" />
        </mxCell>
        <mxCell id="rh7jWQ7DU89hcFFKtQTM-12" value="0..*" style="text;html=1;strokeColor=none;fillColor=none;align=center;verticalAlign=middle;whiteSpace=wrap;rounded=0;" vertex="1" parent="1">
          <mxGeometry x="383" y="460" width="60" height="30" as="geometry" />
        </mxCell>
        <mxCell id="rh7jWQ7DU89hcFFKtQTM-13" value="1..1" style="text;html=1;strokeColor=none;fillColor=none;align=center;verticalAlign=middle;whiteSpace=wrap;rounded=0;" vertex="1" parent="1">
          <mxGeometry x="183" y="460" width="60" height="30" as="geometry" />
        </mxCell>
        <mxCell id="rh7jWQ7DU89hcFFKtQTM-19" style="edgeStyle=orthogonalEdgeStyle;rounded=0;orthogonalLoop=1;jettySize=auto;html=1;entryX=0;entryY=0.5;entryDx=0;entryDy=0;endArrow=none;endFill=0;" edge="1" parent="1" source="rh7jWQ7DU89hcFFKtQTM-3" target="rh7jWQ7DU89hcFFKtQTM-6">
          <mxGeometry relative="1" as="geometry">
            <Array as="points">
              <mxPoint x="433" y="465" />
            </Array>
          </mxGeometry>
        </mxCell>
        <mxCell id="rh7jWQ7DU89hcFFKtQTM-20" value="Device" style="swimlane;fontStyle=0;childLayout=stackLayout;horizontal=1;startSize=26;horizontalStack=0;resizeParent=1;resizeParentMax=0;resizeLast=0;collapsible=1;marginBottom=0;align=center;fontSize=14;" vertex="1" parent="1">
          <mxGeometry x="960" y="587" width="160" height="146" as="geometry" />
        </mxCell>
        <mxCell id="rh7jWQ7DU89hcFFKtQTM-21" value="deviceCatalogId {PK}" style="text;strokeColor=none;fillColor=none;spacingLeft=4;spacingRight=4;overflow=hidden;rotatable=0;points=[[0,0.5],[1,0.5]];portConstraint=eastwest;fontSize=12;" vertex="1" parent="rh7jWQ7DU89hcFFKtQTM-20">
          <mxGeometry y="26" width="160" height="30" as="geometry" />
        </mxCell>
        <mxCell id="rh7jWQ7DU89hcFFKtQTM-22" value="deviceCatalogName" style="text;strokeColor=none;fillColor=none;spacingLeft=4;spacingRight=4;overflow=hidden;rotatable=0;points=[[0,0.5],[1,0.5]];portConstraint=eastwest;fontSize=12;" vertex="1" parent="rh7jWQ7DU89hcFFKtQTM-20">
          <mxGeometry y="56" width="160" height="30" as="geometry" />
        </mxCell>
        <mxCell id="rh7jWQ7DU89hcFFKtQTM-23" value="deviceDescription" style="text;strokeColor=none;fillColor=none;spacingLeft=4;spacingRight=4;overflow=hidden;rotatable=0;points=[[0,0.5],[1,0.5]];portConstraint=eastwest;fontSize=12;" vertex="1" parent="rh7jWQ7DU89hcFFKtQTM-20">
          <mxGeometry y="86" width="160" height="30" as="geometry" />
        </mxCell>
        <mxCell id="rh7jWQ7DU89hcFFKtQTM-24" value="availabilityStatus" style="text;strokeColor=none;fillColor=none;spacingLeft=4;spacingRight=4;overflow=hidden;rotatable=0;points=[[0,0.5],[1,0.5]];portConstraint=eastwest;fontSize=12;" vertex="1" parent="rh7jWQ7DU89hcFFKtQTM-20">
          <mxGeometry y="116" width="160" height="30" as="geometry" />
        </mxCell>
        <mxCell id="rh7jWQ7DU89hcFFKtQTM-25" value="Visual_Device" style="swimlane;fontStyle=0;childLayout=stackLayout;horizontal=1;startSize=26;horizontalStack=0;resizeParent=1;resizeParentMax=0;resizeLast=0;collapsible=1;marginBottom=0;align=center;fontSize=14;" vertex="1" parent="1">
          <mxGeometry x="830" y="797" width="160" height="296" as="geometry" />
        </mxCell>
        <mxCell id="rh7jWQ7DU89hcFFKtQTM-51" value="deviceCatalogId {PK}{FK}" style="text;strokeColor=none;fillColor=none;spacingLeft=4;spacingRight=4;overflow=hidden;rotatable=0;points=[[0,0.5],[1,0.5]];portConstraint=eastwest;fontSize=12;" vertex="1" parent="rh7jWQ7DU89hcFFKtQTM-25">
          <mxGeometry y="26" width="160" height="30" as="geometry" />
        </mxCell>
        <mxCell id="rh7jWQ7DU89hcFFKtQTM-53" value="frameFlag" style="text;strokeColor=none;fillColor=none;spacingLeft=4;spacingRight=4;overflow=hidden;rotatable=0;points=[[0,0.5],[1,0.5]];portConstraint=eastwest;fontSize=12;" vertex="1" parent="rh7jWQ7DU89hcFFKtQTM-25">
          <mxGeometry y="56" width="160" height="30" as="geometry" />
        </mxCell>
        <mxCell id="rh7jWQ7DU89hcFFKtQTM-54" value="frBrand" style="text;strokeColor=none;fillColor=none;spacingLeft=4;spacingRight=4;overflow=hidden;rotatable=0;points=[[0,0.5],[1,0.5]];portConstraint=eastwest;fontSize=12;" vertex="1" parent="rh7jWQ7DU89hcFFKtQTM-25">
          <mxGeometry y="86" width="160" height="30" as="geometry" />
        </mxCell>
        <mxCell id="rh7jWQ7DU89hcFFKtQTM-55" value="frModel" style="text;strokeColor=none;fillColor=none;spacingLeft=4;spacingRight=4;overflow=hidden;rotatable=0;points=[[0,0.5],[1,0.5]];portConstraint=eastwest;fontSize=12;" vertex="1" parent="rh7jWQ7DU89hcFFKtQTM-25">
          <mxGeometry y="116" width="160" height="30" as="geometry" />
        </mxCell>
        <mxCell id="rh7jWQ7DU89hcFFKtQTM-56" value="LensFlag" style="text;strokeColor=none;fillColor=none;spacingLeft=4;spacingRight=4;overflow=hidden;rotatable=0;points=[[0,0.5],[1,0.5]];portConstraint=eastwest;fontSize=12;" vertex="1" parent="rh7jWQ7DU89hcFFKtQTM-25">
          <mxGeometry y="146" width="160" height="30" as="geometry" />
        </mxCell>
        <mxCell id="rh7jWQ7DU89hcFFKtQTM-57" value="lesneSerialNb {AK}" style="text;strokeColor=none;fillColor=none;spacingLeft=4;spacingRight=4;overflow=hidden;rotatable=0;points=[[0,0.5],[1,0.5]];portConstraint=eastwest;fontSize=12;" vertex="1" parent="rh7jWQ7DU89hcFFKtQTM-25">
          <mxGeometry y="176" width="160" height="30" as="geometry" />
        </mxCell>
        <mxCell id="rh7jWQ7DU89hcFFKtQTM-59" value="lenseVisionType" style="text;strokeColor=none;fillColor=none;spacingLeft=4;spacingRight=4;overflow=hidden;rotatable=0;points=[[0,0.5],[1,0.5]];portConstraint=eastwest;fontSize=12;" vertex="1" parent="rh7jWQ7DU89hcFFKtQTM-25">
          <mxGeometry y="206" width="160" height="30" as="geometry" />
        </mxCell>
        <mxCell id="rh7jWQ7DU89hcFFKtQTM-60" value="lenseTint" style="text;strokeColor=none;fillColor=none;spacingLeft=4;spacingRight=4;overflow=hidden;rotatable=0;points=[[0,0.5],[1,0.5]];portConstraint=eastwest;fontSize=12;" vertex="1" parent="rh7jWQ7DU89hcFFKtQTM-25">
          <mxGeometry y="236" width="160" height="30" as="geometry" />
        </mxCell>
        <mxCell id="rh7jWQ7DU89hcFFKtQTM-58" value="lenseThinnessLevel" style="text;strokeColor=none;fillColor=none;spacingLeft=4;spacingRight=4;overflow=hidden;rotatable=0;points=[[0,0.5],[1,0.5]];portConstraint=eastwest;fontSize=12;" vertex="1" parent="rh7jWQ7DU89hcFFKtQTM-25">
          <mxGeometry y="266" width="160" height="30" as="geometry" />
        </mxCell>
        <mxCell id="rh7jWQ7DU89hcFFKtQTM-30" value="Hearing_Device" style="swimlane;fontStyle=0;childLayout=stackLayout;horizontal=1;startSize=26;horizontalStack=0;resizeParent=1;resizeParentMax=0;resizeLast=0;collapsible=1;marginBottom=0;align=center;fontSize=14;" vertex="1" parent="1">
          <mxGeometry x="1080" y="797" width="160" height="56" as="geometry" />
        </mxCell>
        <mxCell id="rh7jWQ7DU89hcFFKtQTM-52" value="deviceCatalogId {PK}{FK}" style="text;strokeColor=none;fillColor=none;spacingLeft=4;spacingRight=4;overflow=hidden;rotatable=0;points=[[0,0.5],[1,0.5]];portConstraint=eastwest;fontSize=12;" vertex="1" parent="rh7jWQ7DU89hcFFKtQTM-30">
          <mxGeometry y="26" width="160" height="30" as="geometry" />
        </mxCell>
        <mxCell id="rh7jWQ7DU89hcFFKtQTM-35" style="edgeStyle=orthogonalEdgeStyle;rounded=0;orthogonalLoop=1;jettySize=auto;html=1;endArrow=none;endFill=0;" edge="1" parent="1" source="rh7jWQ7DU89hcFFKtQTM-22" target="rh7jWQ7DU89hcFFKtQTM-25">
          <mxGeometry relative="1" as="geometry" />
        </mxCell>
        <mxCell id="rh7jWQ7DU89hcFFKtQTM-36" style="edgeStyle=orthogonalEdgeStyle;rounded=0;orthogonalLoop=1;jettySize=auto;html=1;endArrow=none;endFill=0;" edge="1" parent="1" source="rh7jWQ7DU89hcFFKtQTM-22" target="rh7jWQ7DU89hcFFKtQTM-30">
          <mxGeometry relative="1" as="geometry" />
        </mxCell>
        <mxCell id="rh7jWQ7DU89hcFFKtQTM-37" value="can be" style="text;html=1;strokeColor=none;fillColor=none;align=center;verticalAlign=middle;whiteSpace=wrap;rounded=0;" vertex="1" parent="1">
          <mxGeometry x="850" y="693" width="60" height="30" as="geometry" />
        </mxCell>
        <mxCell id="rh7jWQ7DU89hcFFKtQTM-39" value="" style="triangle;whiteSpace=wrap;html=1;fillColor=#000000;direction=south;" vertex="1" parent="1">
          <mxGeometry x="870" y="723" width="20" height="20" as="geometry" />
        </mxCell>
        <mxCell id="rh7jWQ7DU89hcFFKtQTM-40" value="can be" style="text;html=1;strokeColor=none;fillColor=none;align=center;verticalAlign=middle;whiteSpace=wrap;rounded=0;" vertex="1" parent="1">
          <mxGeometry x="1160" y="694" width="60" height="30" as="geometry" />
        </mxCell>
        <mxCell id="rh7jWQ7DU89hcFFKtQTM-41" value="" style="triangle;whiteSpace=wrap;html=1;fillColor=#000000;direction=south;" vertex="1" parent="1">
          <mxGeometry x="1180" y="724" width="20" height="20" as="geometry" />
        </mxCell>
        <mxCell id="rh7jWQ7DU89hcFFKtQTM-42" value="0..1" style="text;html=1;strokeColor=none;fillColor=none;align=center;verticalAlign=middle;whiteSpace=wrap;rounded=0;" vertex="1" parent="1">
          <mxGeometry x="900" y="767" width="60" height="30" as="geometry" />
        </mxCell>
        <mxCell id="rh7jWQ7DU89hcFFKtQTM-43" value="0..1" style="text;html=1;strokeColor=none;fillColor=none;align=center;verticalAlign=middle;whiteSpace=wrap;rounded=0;" vertex="1" parent="1">
          <mxGeometry x="1110" y="767" width="60" height="30" as="geometry" />
        </mxCell>
        <mxCell id="rh7jWQ7DU89hcFFKtQTM-44" value="1..1" style="text;html=1;strokeColor=none;fillColor=none;align=center;verticalAlign=middle;whiteSpace=wrap;rounded=0;" vertex="1" parent="1">
          <mxGeometry x="1110" y="655" width="60" height="30" as="geometry" />
        </mxCell>
        <mxCell id="rh7jWQ7DU89hcFFKtQTM-45" value="1..1" style="text;html=1;strokeColor=none;fillColor=none;align=center;verticalAlign=middle;whiteSpace=wrap;rounded=0;" vertex="1" parent="1">
          <mxGeometry x="910" y="655" width="60" height="30" as="geometry" />
        </mxCell>
        <mxCell id="rh7jWQ7DU89hcFFKtQTM-61" value="Hearing_Test_Booking" style="swimlane;fontStyle=0;childLayout=stackLayout;horizontal=1;startSize=26;horizontalStack=0;resizeParent=1;resizeParentMax=0;resizeLast=0;collapsible=1;marginBottom=0;align=center;fontSize=14;" vertex="1" parent="1">
          <mxGeometry x="720" y="40" width="160" height="236" as="geometry" />
        </mxCell>
        <mxCell id="rh7jWQ7DU89hcFFKtQTM-62" value="testId {PK}" style="text;strokeColor=none;fillColor=none;spacingLeft=4;spacingRight=4;overflow=hidden;rotatable=0;points=[[0,0.5],[1,0.5]];portConstraint=eastwest;fontSize=12;" vertex="1" parent="rh7jWQ7DU89hcFFKtQTM-61">
          <mxGeometry y="26" width="160" height="30" as="geometry" />
        </mxCell>
        <mxCell id="rh7jWQ7DU89hcFFKtQTM-63" value="testDateTime" style="text;strokeColor=none;fillColor=none;spacingLeft=4;spacingRight=4;overflow=hidden;rotatable=0;points=[[0,0.5],[1,0.5]];portConstraint=eastwest;fontSize=12;" vertex="1" parent="rh7jWQ7DU89hcFFKtQTM-61">
          <mxGeometry y="56" width="160" height="30" as="geometry" />
        </mxCell>
        <mxCell id="rh7jWQ7DU89hcFFKtQTM-64" value="testComments" style="text;strokeColor=none;fillColor=none;spacingLeft=4;spacingRight=4;overflow=hidden;rotatable=0;points=[[0,0.5],[1,0.5]];portConstraint=eastwest;fontSize=12;" vertex="1" parent="rh7jWQ7DU89hcFFKtQTM-61">
          <mxGeometry y="86" width="160" height="30" as="geometry" />
        </mxCell>
        <mxCell id="rh7jWQ7DU89hcFFKtQTM-71" value="hearingLevel" style="text;strokeColor=none;fillColor=none;spacingLeft=4;spacingRight=4;overflow=hidden;rotatable=0;points=[[0,0.5],[1,0.5]];portConstraint=eastwest;fontSize=12;" vertex="1" parent="rh7jWQ7DU89hcFFKtQTM-61">
          <mxGeometry y="116" width="160" height="30" as="geometry" />
        </mxCell>
        <mxCell id="rh7jWQ7DU89hcFFKtQTM-88" value="bookingRefNo{AK}" style="text;strokeColor=none;fillColor=none;spacingLeft=4;spacingRight=4;overflow=hidden;rotatable=0;points=[[0,0.5],[1,0.5]];portConstraint=eastwest;fontSize=12;" vertex="1" parent="rh7jWQ7DU89hcFFKtQTM-61">
          <mxGeometry y="146" width="160" height="30" as="geometry" />
        </mxCell>
        <mxCell id="rh7jWQ7DU89hcFFKtQTM-89" value="bookingDateTime" style="text;strokeColor=none;fillColor=none;spacingLeft=4;spacingRight=4;overflow=hidden;rotatable=0;points=[[0,0.5],[1,0.5]];portConstraint=eastwest;fontSize=12;" vertex="1" parent="rh7jWQ7DU89hcFFKtQTM-61">
          <mxGeometry y="176" width="160" height="30" as="geometry" />
        </mxCell>
        <mxCell id="rh7jWQ7DU89hcFFKtQTM-90" value="bookingStatus" style="text;strokeColor=none;fillColor=none;spacingLeft=4;spacingRight=4;overflow=hidden;rotatable=0;points=[[0,0.5],[1,0.5]];portConstraint=eastwest;fontSize=12;" vertex="1" parent="rh7jWQ7DU89hcFFKtQTM-61">
          <mxGeometry y="206" width="160" height="30" as="geometry" />
        </mxCell>
        <mxCell id="rh7jWQ7DU89hcFFKtQTM-66" value="Vision_Test_Booking" style="swimlane;fontStyle=0;childLayout=stackLayout;horizontal=1;startSize=26;horizontalStack=0;resizeParent=1;resizeParentMax=0;resizeLast=0;collapsible=1;marginBottom=0;align=center;fontSize=14;" vertex="1" parent="1">
          <mxGeometry x="960" y="40" width="160" height="296" as="geometry" />
        </mxCell>
        <mxCell id="rh7jWQ7DU89hcFFKtQTM-75" value="hearingLevel" style="text;strokeColor=none;fillColor=none;spacingLeft=4;spacingRight=4;overflow=hidden;rotatable=0;points=[[0,0.5],[1,0.5]];portConstraint=eastwest;fontSize=12;" vertex="1" parent="rh7jWQ7DU89hcFFKtQTM-66">
          <mxGeometry y="26" width="160" height="30" as="geometry" />
        </mxCell>
        <mxCell id="rh7jWQ7DU89hcFFKtQTM-74" value="testComments" style="text;strokeColor=none;fillColor=none;spacingLeft=4;spacingRight=4;overflow=hidden;rotatable=0;points=[[0,0.5],[1,0.5]];portConstraint=eastwest;fontSize=12;" vertex="1" parent="rh7jWQ7DU89hcFFKtQTM-66">
          <mxGeometry y="56" width="160" height="30" as="geometry" />
        </mxCell>
        <mxCell id="rh7jWQ7DU89hcFFKtQTM-73" value="testDateTime" style="text;strokeColor=none;fillColor=none;spacingLeft=4;spacingRight=4;overflow=hidden;rotatable=0;points=[[0,0.5],[1,0.5]];portConstraint=eastwest;fontSize=12;" vertex="1" parent="rh7jWQ7DU89hcFFKtQTM-66">
          <mxGeometry y="86" width="160" height="30" as="geometry" />
        </mxCell>
        <mxCell id="rh7jWQ7DU89hcFFKtQTM-72" value="visualAcuty" style="text;strokeColor=none;fillColor=none;spacingLeft=4;spacingRight=4;overflow=hidden;rotatable=0;points=[[0,0.5],[1,0.5]];portConstraint=eastwest;fontSize=12;" vertex="1" parent="rh7jWQ7DU89hcFFKtQTM-66">
          <mxGeometry y="116" width="160" height="30" as="geometry" />
        </mxCell>
        <mxCell id="rh7jWQ7DU89hcFFKtQTM-76" value="retinoscopy" style="text;strokeColor=none;fillColor=none;spacingLeft=4;spacingRight=4;overflow=hidden;rotatable=0;points=[[0,0.5],[1,0.5]];portConstraint=eastwest;fontSize=12;" vertex="1" parent="rh7jWQ7DU89hcFFKtQTM-66">
          <mxGeometry y="146" width="160" height="30" as="geometry" />
        </mxCell>
        <mxCell id="rh7jWQ7DU89hcFFKtQTM-77" value="refraction" style="text;strokeColor=none;fillColor=none;spacingLeft=4;spacingRight=4;overflow=hidden;rotatable=0;points=[[0,0.5],[1,0.5]];portConstraint=eastwest;fontSize=12;" vertex="1" parent="rh7jWQ7DU89hcFFKtQTM-66">
          <mxGeometry y="176" width="160" height="30" as="geometry" />
        </mxCell>
        <mxCell id="rh7jWQ7DU89hcFFKtQTM-91" value="bookingRefNo{AK}" style="text;strokeColor=none;fillColor=none;spacingLeft=4;spacingRight=4;overflow=hidden;rotatable=0;points=[[0,0.5],[1,0.5]];portConstraint=eastwest;fontSize=12;" vertex="1" parent="rh7jWQ7DU89hcFFKtQTM-66">
          <mxGeometry y="206" width="160" height="30" as="geometry" />
        </mxCell>
        <mxCell id="rh7jWQ7DU89hcFFKtQTM-93" value="bookingStatus" style="text;strokeColor=none;fillColor=none;spacingLeft=4;spacingRight=4;overflow=hidden;rotatable=0;points=[[0,0.5],[1,0.5]];portConstraint=eastwest;fontSize=12;" vertex="1" parent="rh7jWQ7DU89hcFFKtQTM-66">
          <mxGeometry y="236" width="160" height="30" as="geometry" />
        </mxCell>
        <mxCell id="rh7jWQ7DU89hcFFKtQTM-92" value="bookingDateTime" style="text;strokeColor=none;fillColor=none;spacingLeft=4;spacingRight=4;overflow=hidden;rotatable=0;points=[[0,0.5],[1,0.5]];portConstraint=eastwest;fontSize=12;" vertex="1" parent="rh7jWQ7DU89hcFFKtQTM-66">
          <mxGeometry y="266" width="160" height="30" as="geometry" />
        </mxCell>
        <mxCell id="rh7jWQ7DU89hcFFKtQTM-94" value="Branch" style="swimlane;fontStyle=0;childLayout=stackLayout;horizontal=1;startSize=26;horizontalStack=0;resizeParent=1;resizeParentMax=0;resizeLast=0;collapsible=1;marginBottom=0;align=center;fontSize=14;" vertex="1" parent="1">
          <mxGeometry x="40" y="40" width="160" height="56" as="geometry" />
        </mxCell>
        <mxCell id="rh7jWQ7DU89hcFFKtQTM-95" value="deviceCatalogId {PK}{FK}" style="text;strokeColor=none;fillColor=none;spacingLeft=4;spacingRight=4;overflow=hidden;rotatable=0;points=[[0,0.5],[1,0.5]];portConstraint=eastwest;fontSize=12;" vertex="1" parent="rh7jWQ7DU89hcFFKtQTM-94">
          <mxGeometry y="26" width="160" height="30" as="geometry" />
        </mxCell>
        <mxCell id="rh7jWQ7DU89hcFFKtQTM-116" style="edgeStyle=orthogonalEdgeStyle;rounded=0;orthogonalLoop=1;jettySize=auto;html=1;endArrow=none;endFill=0;" edge="1" parent="1" source="rh7jWQ7DU89hcFFKtQTM-96">
          <mxGeometry relative="1" as="geometry">
            <mxPoint x="1369.9999999999995" y="440.9999999999998" as="targetPoint" />
          </mxGeometry>
        </mxCell>
        <mxCell id="rh7jWQ7DU89hcFFKtQTM-96" value="Order_Description" style="swimlane;fontStyle=0;childLayout=stackLayout;horizontal=1;startSize=26;horizontalStack=0;resizeParent=1;resizeParentMax=0;resizeLast=0;collapsible=1;marginBottom=0;align=center;fontSize=14;" vertex="1" parent="1">
          <mxGeometry x="1290" y="587" width="160" height="116" as="geometry" />
        </mxCell>
        <mxCell id="rh7jWQ7DU89hcFFKtQTM-111" value="deviceCatalogId {FK}" style="text;strokeColor=none;fillColor=none;spacingLeft=4;spacingRight=4;overflow=hidden;rotatable=0;points=[[0,0.5],[1,0.5]];portConstraint=eastwest;fontSize=12;" vertex="1" parent="rh7jWQ7DU89hcFFKtQTM-96">
          <mxGeometry y="26" width="160" height="30" as="geometry" />
        </mxCell>
        <mxCell id="rh7jWQ7DU89hcFFKtQTM-112" value="prescripRefNo {FK}" style="text;strokeColor=none;fillColor=none;spacingLeft=4;spacingRight=4;overflow=hidden;rotatable=0;points=[[0,0.5],[1,0.5]];portConstraint=eastwest;fontSize=12;" vertex="1" parent="rh7jWQ7DU89hcFFKtQTM-96">
          <mxGeometry y="56" width="160" height="30" as="geometry" />
        </mxCell>
        <mxCell id="rh7jWQ7DU89hcFFKtQTM-114" value="orderRefNo {FK}" style="text;strokeColor=none;fillColor=none;spacingLeft=4;spacingRight=4;overflow=hidden;rotatable=0;points=[[0,0.5],[1,0.5]];portConstraint=eastwest;fontSize=12;" vertex="1" parent="rh7jWQ7DU89hcFFKtQTM-96">
          <mxGeometry y="86" width="160" height="30" as="geometry" />
        </mxCell>
        <mxCell id="rh7jWQ7DU89hcFFKtQTM-98" value="Order" style="swimlane;fontStyle=0;childLayout=stackLayout;horizontal=1;startSize=26;horizontalStack=0;resizeParent=1;resizeParentMax=0;resizeLast=0;collapsible=1;marginBottom=0;align=center;fontSize=14;" vertex="1" parent="1">
          <mxGeometry x="1610" y="587" width="160" height="176" as="geometry" />
        </mxCell>
        <mxCell id="rh7jWQ7DU89hcFFKtQTM-99" value="orderRefNo {PK}" style="text;strokeColor=none;fillColor=none;spacingLeft=4;spacingRight=4;overflow=hidden;rotatable=0;points=[[0,0.5],[1,0.5]];portConstraint=eastwest;fontSize=12;" vertex="1" parent="rh7jWQ7DU89hcFFKtQTM-98">
          <mxGeometry y="26" width="160" height="30" as="geometry" />
        </mxCell>
        <mxCell id="rh7jWQ7DU89hcFFKtQTM-106" value="orderDateTime" style="text;strokeColor=none;fillColor=none;spacingLeft=4;spacingRight=4;overflow=hidden;rotatable=0;points=[[0,0.5],[1,0.5]];portConstraint=eastwest;fontSize=12;" vertex="1" parent="rh7jWQ7DU89hcFFKtQTM-98">
          <mxGeometry y="56" width="160" height="30" as="geometry" />
        </mxCell>
        <mxCell id="rh7jWQ7DU89hcFFKtQTM-108" value="orderStatus" style="text;strokeColor=none;fillColor=none;spacingLeft=4;spacingRight=4;overflow=hidden;rotatable=0;points=[[0,0.5],[1,0.5]];portConstraint=eastwest;fontSize=12;" vertex="1" parent="rh7jWQ7DU89hcFFKtQTM-98">
          <mxGeometry y="86" width="160" height="30" as="geometry" />
        </mxCell>
        <mxCell id="rh7jWQ7DU89hcFFKtQTM-109" value="expectedDateTime" style="text;strokeColor=none;fillColor=none;spacingLeft=4;spacingRight=4;overflow=hidden;rotatable=0;points=[[0,0.5],[1,0.5]];portConstraint=eastwest;fontSize=12;" vertex="1" parent="rh7jWQ7DU89hcFFKtQTM-98">
          <mxGeometry y="116" width="160" height="30" as="geometry" />
        </mxCell>
        <mxCell id="rh7jWQ7DU89hcFFKtQTM-107" value="colectDateTIme" style="text;strokeColor=none;fillColor=none;spacingLeft=4;spacingRight=4;overflow=hidden;rotatable=0;points=[[0,0.5],[1,0.5]];portConstraint=eastwest;fontSize=12;" vertex="1" parent="rh7jWQ7DU89hcFFKtQTM-98">
          <mxGeometry y="146" width="160" height="30" as="geometry" />
        </mxCell>
        <mxCell id="rh7jWQ7DU89hcFFKtQTM-100" value="Presecription" style="swimlane;fontStyle=0;childLayout=stackLayout;horizontal=1;startSize=26;horizontalStack=0;resizeParent=1;resizeParentMax=0;resizeLast=0;collapsible=1;marginBottom=0;align=center;fontSize=14;" vertex="1" parent="1">
          <mxGeometry x="1290" y="266" width="160" height="176" as="geometry" />
        </mxCell>
        <mxCell id="rh7jWQ7DU89hcFFKtQTM-101" value="prescripRefNo {PK}" style="text;strokeColor=none;fillColor=none;spacingLeft=4;spacingRight=4;overflow=hidden;rotatable=0;points=[[0,0.5],[1,0.5]];portConstraint=eastwest;fontSize=12;" vertex="1" parent="rh7jWQ7DU89hcFFKtQTM-100">
          <mxGeometry y="26" width="160" height="30" as="geometry" />
        </mxCell>
        <mxCell id="rh7jWQ7DU89hcFFKtQTM-103" value="startDate" style="text;strokeColor=none;fillColor=none;spacingLeft=4;spacingRight=4;overflow=hidden;rotatable=0;points=[[0,0.5],[1,0.5]];portConstraint=eastwest;fontSize=12;" vertex="1" parent="rh7jWQ7DU89hcFFKtQTM-100">
          <mxGeometry y="56" width="160" height="30" as="geometry" />
        </mxCell>
        <mxCell id="rh7jWQ7DU89hcFFKtQTM-104" value="validToDate" style="text;strokeColor=none;fillColor=none;spacingLeft=4;spacingRight=4;overflow=hidden;rotatable=0;points=[[0,0.5],[1,0.5]];portConstraint=eastwest;fontSize=12;" vertex="1" parent="rh7jWQ7DU89hcFFKtQTM-100">
          <mxGeometry y="86" width="160" height="30" as="geometry" />
        </mxCell>
        <mxCell id="rh7jWQ7DU89hcFFKtQTM-102" value="testResults" style="text;strokeColor=none;fillColor=none;spacingLeft=4;spacingRight=4;overflow=hidden;rotatable=0;points=[[0,0.5],[1,0.5]];portConstraint=eastwest;fontSize=12;" vertex="1" parent="rh7jWQ7DU89hcFFKtQTM-100">
          <mxGeometry y="116" width="160" height="30" as="geometry" />
        </mxCell>
        <mxCell id="rh7jWQ7DU89hcFFKtQTM-105" value="recommendation" style="text;strokeColor=none;fillColor=none;spacingLeft=4;spacingRight=4;overflow=hidden;rotatable=0;points=[[0,0.5],[1,0.5]];portConstraint=eastwest;fontSize=12;" vertex="1" parent="rh7jWQ7DU89hcFFKtQTM-100">
          <mxGeometry y="146" width="160" height="30" as="geometry" />
        </mxCell>
        <mxCell id="rh7jWQ7DU89hcFFKtQTM-115" style="edgeStyle=orthogonalEdgeStyle;rounded=0;orthogonalLoop=1;jettySize=auto;html=1;endArrow=none;endFill=0;" edge="1" parent="1" source="rh7jWQ7DU89hcFFKtQTM-21" target="rh7jWQ7DU89hcFFKtQTM-111">
          <mxGeometry relative="1" as="geometry" />
        </mxCell>
        <mxCell id="rh7jWQ7DU89hcFFKtQTM-117" style="edgeStyle=orthogonalEdgeStyle;rounded=0;orthogonalLoop=1;jettySize=auto;html=1;endArrow=none;endFill=0;" edge="1" parent="1" source="rh7jWQ7DU89hcFFKtQTM-111" target="rh7jWQ7DU89hcFFKtQTM-99">
          <mxGeometry relative="1" as="geometry" />
        </mxCell>
        <mxCell id="rh7jWQ7DU89hcFFKtQTM-118" value="1..1" style="text;html=1;strokeColor=none;fillColor=none;align=center;verticalAlign=middle;whiteSpace=wrap;rounded=0;" vertex="1" parent="1">
          <mxGeometry x="1110" y="625" width="60" height="30" as="geometry" />
        </mxCell>
        <mxCell id="rh7jWQ7DU89hcFFKtQTM-119" value="1..1" style="text;html=1;strokeColor=none;fillColor=none;align=center;verticalAlign=middle;whiteSpace=wrap;rounded=0;" vertex="1" parent="1">
          <mxGeometry x="1360" y="439" width="60" height="30" as="geometry" />
        </mxCell>
        <mxCell id="rh7jWQ7DU89hcFFKtQTM-120" value="1..1" style="text;html=1;strokeColor=none;fillColor=none;align=center;verticalAlign=middle;whiteSpace=wrap;rounded=0;" vertex="1" parent="1">
          <mxGeometry x="1560" y="625" width="60" height="30" as="geometry" />
        </mxCell>
        <mxCell id="rh7jWQ7DU89hcFFKtQTM-121" value="1..*" style="text;html=1;strokeColor=none;fillColor=none;align=center;verticalAlign=middle;whiteSpace=wrap;rounded=0;" vertex="1" parent="1">
          <mxGeometry x="1240" y="625" width="60" height="30" as="geometry" />
        </mxCell>
        <mxCell id="rh7jWQ7DU89hcFFKtQTM-122" value="1..1" style="text;html=1;strokeColor=none;fillColor=none;align=center;verticalAlign=middle;whiteSpace=wrap;rounded=0;" vertex="1" parent="1">
          <mxGeometry x="1360" y="557" width="60" height="30" as="geometry" />
        </mxCell>
        <mxCell id="rh7jWQ7DU89hcFFKtQTM-123" value="0..*" style="text;html=1;strokeColor=none;fillColor=none;align=center;verticalAlign=middle;whiteSpace=wrap;rounded=0;" vertex="1" parent="1">
          <mxGeometry x="1440" y="627" width="60" height="30" as="geometry" />
        </mxCell>
        <mxCell id="rh7jWQ7DU89hcFFKtQTM-124" value="is for" style="text;html=1;strokeColor=none;fillColor=none;align=center;verticalAlign=middle;whiteSpace=wrap;rounded=0;" vertex="1" parent="1">
          <mxGeometry x="1511" y="598" width="60" height="30" as="geometry" />
        </mxCell>
        <mxCell id="rh7jWQ7DU89hcFFKtQTM-125" value="" style="triangle;whiteSpace=wrap;html=1;fillColor=#000000;direction=west;" vertex="1" parent="1">
          <mxGeometry x="1498" y="603" width="20" height="20" as="geometry" />
        </mxCell>
        <mxCell id="rh7jWQ7DU89hcFFKtQTM-126" value="is for" style="text;html=1;strokeColor=none;fillColor=none;align=center;verticalAlign=middle;whiteSpace=wrap;rounded=0;" vertex="1" parent="1">
          <mxGeometry x="1178" y="597" width="60" height="30" as="geometry" />
        </mxCell>
        <mxCell id="rh7jWQ7DU89hcFFKtQTM-127" value="" style="triangle;whiteSpace=wrap;html=1;fillColor=#000000;direction=east;" vertex="1" parent="1">
          <mxGeometry x="1238" y="602" width="20" height="20" as="geometry" />
        </mxCell>
        <mxCell id="rh7jWQ7DU89hcFFKtQTM-128" value="is for" style="text;html=1;strokeColor=none;fillColor=none;align=center;verticalAlign=middle;whiteSpace=wrap;rounded=0;" vertex="1" parent="1">
          <mxGeometry x="1321" y="485" width="60" height="30" as="geometry" />
        </mxCell>
        <mxCell id="rh7jWQ7DU89hcFFKtQTM-129" value="" style="triangle;whiteSpace=wrap;html=1;fillColor=#000000;direction=south;" vertex="1" parent="1">
          <mxGeometry x="1341" y="512" width="20" height="20" as="geometry" />
        </mxCell>
      </root>
    </mxGraphModel>
  </diagram>
</mxfile>
